<?xml version="1.0" standalone="no"?>
<!DOCTYPE svg PUBLIC "-//W3C//DTD SVG 20010904//EN"
 "http://www.w3.org/TR/2001/REC-SVG-20010904/DTD/svg10.dtd">
<svg version="1.0" xmlns="http://www.w3.org/2000/svg"
 width="1200.000000pt" height="776.000000pt" viewBox="0 0 1200.000000 776.000000"
 preserveAspectRatio="xMidYMid meet">

<g transform="translate(0.000000,776.000000) scale(0.100000,-0.100000)"
fill="#000000" stroke="none">
<path d="M9005 7726 c-246 -48 -437 -210 -528 -448 -30 -80 -32 -89 -31 -233
0 -140 1 -155 28 -223 40 -108 90 -186 165 -262 325 -328 871 -252 1096 155
59 106 80 193 80 330 0 137 -21 224 -80 330 -145 261 -446 406 -730 351z"/>
<path d="M6788 6226 l-508 -139 0 -2344 0 -2343 505 0 c395 0 507 3 510 13 3
6 4 1124 3 2483 l-3 2470 -507 -140z"/>
<path d="M1655 6284 c-11 -2 -45 -9 -75 -15 -30 -6 -98 -31 -150 -56 -80 -39
-108 -59 -181 -132 -138 -138 -202 -291 -203 -486 0 -120 19 -199 73 -310 87
-177 249 -309 441 -362 103 -28 282 -23 385 10 189 62 329 184 415 362 188
391 -27 860 -445 970 -61 16 -223 28 -260 19z"/>
<path d="M8178 6280 c-148 -27 -268 -90 -373 -195 -141 -142 -195 -264 -202
-460 -6 -146 10 -223 69 -345 34 -67 60 -103 128 -171 71 -72 101 -93 180
-132 209 -102 411 -102 620 0 79 39 109 60 180 132 138 138 201 291 201 486 0
119 -21 208 -73 315 -34 68 -59 102 -128 170 -93 93 -173 142 -295 180 -79 24
-232 34 -307 20z"/>
<path d="M9864 6280 c-145 -21 -272 -87 -385 -200 -140 -139 -203 -292 -203
-490 1 -126 20 -205 75 -311 91 -176 250 -304 439 -356 103 -28 282 -23 385
10 110 36 196 89 279 173 83 82 136 168 173 279 23 70 27 96 27 210 0 114 -4
140 -27 210 -108 326 -427 524 -763 475z"/>
<path d="M1770 4711 l-495 -137 -6 -1924 c-5 -1980 -6 -1993 -44 -2111 -29
-87 -105 -127 -188 -100 -44 15 -128 96 -187 180 -47 68 -131 141 -200 176
-213 107 -526 14 -619 -185 -37 -81 -37 -194 2 -267 75 -145 256 -249 518
-300 134 -26 592 -26 759 0 239 37 368 81 505 171 198 133 329 328 399 598 65
251 60 82 63 2156 2 1035 0 1882 -4 1881 -5 0 -231 -62 -503 -138z"/>
<path d="M8350 4701 l-495 -137 -3 -1582 -2 -1582 507 2 508 3 3 1718 c2 1371
0 1717 -10 1716 -7 0 -236 -62 -508 -138z"/>
<path d="M10365 4809 c-138 -15 -372 -65 -492 -105 -376 -125 -641 -349 -693
-585 -20 -88 -9 -212 23 -280 34 -71 92 -138 157 -179 182 -117 486 -98 628
39 75 73 105 167 121 377 11 153 39 223 115 290 73 64 138 86 271 92 191 8
304 -39 384 -159 80 -120 101 -226 101 -526 l0 -231 -42 -7 c-64 -10 -600
-188 -785 -261 -514 -201 -804 -417 -951 -711 -141 -280 -86 -672 129 -917 98
-111 278 -216 449 -261 202 -54 479 -56 690 -5 122 29 284 112 407 209 l102
80 3 -132 3 -132 508 -3 507 -2 -3 1327 c-3 1497 3 1382 -82 1558 -132 274
-416 438 -885 510 -126 20 -532 28 -665 14z m598 -2646 c-64 -51 -308 -205
-350 -222 -76 -30 -160 -41 -217 -29 -58 12 -149 92 -189 166 -60 111 -84 300
-52 408 19 66 64 132 150 223 125 132 304 253 550 372 l120 59 3 -481 c2 -450
1 -483 -15 -496z"/>
<path d="M2763 3508 c4 -1381 0 -1299 62 -1463 177 -471 723 -771 1255 -690
164 24 312 84 499 200 47 30 114 76 149 104 34 28 64 51 67 51 3 0 5 -70 5
-155 l0 -155 508 2 507 3 3 1683 2 1682 -510 0 -510 0 0 -1203 0 -1202 -37
-55 c-49 -74 -204 -227 -281 -277 -34 -23 -87 -51 -118 -62 -227 -86 -537 104
-584 358 -6 34 -10 490 -10 1247 l0 1194 -505 0 -506 0 4 -1262z"/>
</g>
</svg>
