<?xml version="1.0" encoding="utf-8"?>
<!-- Generator: Adobe Illustrator 22.0.0, SVG Export Plug-In . SVG Version: 6.00 Build 0)  -->
<svg version="1.1" id="Capa_1" xmlns="http://www.w3.org/2000/svg" xmlns:xlink="http://www.w3.org/1999/xlink" x="0px" y="0px"
	 viewBox="0 0 282.81 65.38" enable-background="new 0 0 282.81 65.38" xml:space="preserve">
<g>
	<path d="M97.35,29.98c-1.89-1.02-3.38-2.43-4.46-4.23c-1.08-1.8-1.62-3.84-1.62-6.12c0-2.27,0.54-4.31,1.62-6.12
		s2.57-3.21,4.46-4.23c1.89-1.02,4.02-1.53,6.38-1.53c1.99,0,3.79,0.35,5.4,1.05c1.61,0.7,2.96,1.71,4.05,3.02l-3.41,3.15
		c-1.55-1.79-3.48-2.69-5.77-2.69c-1.42,0-2.69,0.31-3.81,0.94c-1.12,0.62-1.98,1.49-2.61,2.61c-0.62,1.12-0.94,2.38-0.94,3.81
		c0,1.42,0.31,2.69,0.94,3.81c0.62,1.12,1.49,1.98,2.61,2.61c1.12,0.62,2.38,0.93,3.81,0.93c2.3,0,4.22-0.91,5.77-2.72l3.41,3.15
		c-1.09,1.33-2.45,2.35-4.07,3.05c-1.62,0.7-3.42,1.05-5.41,1.05C101.36,31.51,99.24,31,97.35,29.98z"/>
	<path d="M120.94,29.97c-1.91-1.03-3.41-2.44-4.49-4.25c-1.08-1.8-1.62-3.83-1.62-6.09c0-2.25,0.54-4.28,1.62-6.08
		c1.08-1.8,2.58-3.22,4.49-4.25c1.91-1.03,4.06-1.54,6.45-1.54c2.38,0,4.53,0.51,6.43,1.54c1.9,1.03,3.4,2.44,4.49,4.25
		c1.09,1.8,1.64,3.83,1.64,6.08c0,2.25-0.55,4.28-1.64,6.09c-1.09,1.8-2.59,3.22-4.49,4.25c-1.9,1.03-4.05,1.54-6.43,1.54
		C125,31.51,122.85,31,120.94,29.97z M131.06,26.05c1.09-0.62,1.95-1.49,2.58-2.61c0.62-1.12,0.94-2.38,0.94-3.81
		c0-1.42-0.31-2.69-0.94-3.81c-0.62-1.12-1.48-1.98-2.58-2.61c-1.09-0.62-2.32-0.94-3.67-0.94c-1.36,0-2.58,0.31-3.67,0.94
		c-1.09,0.62-1.95,1.49-2.58,2.61c-0.62,1.12-0.94,2.38-0.94,3.81c0,1.42,0.31,2.69,0.94,3.81c0.62,1.12,1.48,1.98,2.58,2.61
		c1.09,0.62,2.32,0.93,3.67,0.93C128.74,26.98,129.97,26.67,131.06,26.05z"/>
	<path d="M164.85,31.12l-0.03-13.78l-6.76,11.35h-2.4l-6.73-11.06v13.48h-4.99V8.15h4.4l8.6,14.27l8.46-14.27h4.36l0.07,22.96
		H164.85z"/>
	<path d="M196.18,31.12l-0.03-13.78l-6.76,11.35h-2.4l-6.73-11.06v13.48h-4.99V8.15h4.4l8.6,14.27l8.46-14.27h4.36l0.07,22.96
		H196.18z"/>
	<path d="M206.61,8.15h5.31v22.96h-5.31V8.15z"/>
	<path d="M222.13,12.48h-7.35V8.15h20.01v4.33h-7.35v18.63h-5.31V12.48z"/>
	<path d="M255.43,26.85v4.26h-17.78V8.15H255v4.27h-12.07v4.99h10.66v4.13h-10.66v5.31H255.43z"/>
	<path d="M259.66,8.15h10.43c2.49,0,4.7,0.48,6.61,1.43c1.91,0.95,3.4,2.29,4.46,4.02c1.06,1.73,1.59,3.74,1.59,6.04
		c0,2.3-0.53,4.31-1.59,6.04c-1.06,1.73-2.55,3.07-4.46,4.02c-1.91,0.95-4.12,1.43-6.61,1.43h-10.43V8.15z M269.83,26.75
		c2.3,0,4.13-0.64,5.5-1.92c1.37-1.28,2.05-3.01,2.05-5.2c0-2.19-0.68-3.92-2.05-5.2c-1.37-1.28-3.2-1.92-5.5-1.92h-4.86v14.24
		H269.83z"/>
</g>
<g>
	<path d="M98.46,54.86c-0.27,0.24-0.6,0.42-0.99,0.55c-0.39,0.13-0.8,0.19-1.23,0.19c-0.99,0-1.75-0.27-2.28-0.8
		c-0.53-0.53-0.8-1.29-0.8-2.26v-6.35h-1.88v-1.2h1.88v-2.3h1.42v2.3h3.2v1.2h-3.2v6.27c0,0.63,0.16,1.1,0.47,1.43
		c0.31,0.33,0.76,0.49,1.35,0.49c0.29,0,0.58-0.05,0.85-0.14c0.27-0.09,0.51-0.23,0.71-0.4L98.46,54.86z"/>
	<path d="M102.21,54.91c-0.81-0.46-1.45-1.1-1.92-1.91c-0.47-0.81-0.7-1.73-0.7-2.76s0.23-1.94,0.7-2.76
		c0.47-0.81,1.1-1.44,1.92-1.9s1.72-0.68,2.74-0.68s1.92,0.23,2.74,0.68s1.45,1.08,1.91,1.9s0.69,1.73,0.69,2.76
		s-0.23,1.94-0.69,2.76s-1.1,1.45-1.91,1.91c-0.81,0.46-1.72,0.69-2.74,0.69S103.02,55.37,102.21,54.91z M106.96,53.83
		c0.59-0.34,1.06-0.82,1.39-1.45s0.5-1.34,0.5-2.14s-0.17-1.51-0.5-2.14s-0.8-1.11-1.39-1.45c-0.59-0.34-1.26-0.51-2.01-0.51
		c-0.75,0-1.42,0.17-2.01,0.51c-0.59,0.34-1.06,0.82-1.4,1.45c-0.34,0.63-0.51,1.34-0.51,2.14s0.17,1.51,0.51,2.14
		c0.34,0.63,0.81,1.11,1.4,1.45c0.59,0.34,1.26,0.51,2.01,0.51C105.69,54.34,106.36,54.17,106.96,53.83z"/>
	<path d="M120.5,42.27c-0.31,0.33-0.47,0.83-0.47,1.48v1.24h3.24v1.2h-3.2v9.31h-1.42v-9.31h-1.88v-1.2h1.88v-1.3
		c0-0.96,0.28-1.72,0.83-2.28c0.55-0.56,1.33-0.84,2.35-0.84c0.4,0,0.79,0.06,1.16,0.17c0.37,0.11,0.69,0.28,0.94,0.49l-0.48,1.06
		c-0.41-0.35-0.93-0.52-1.56-0.52C121.27,41.78,120.81,41.94,120.5,42.27z M126.76,42.39c-0.2-0.2-0.3-0.44-0.3-0.72
		c0-0.27,0.1-0.5,0.3-0.7c0.2-0.2,0.45-0.3,0.74-0.3s0.54,0.1,0.74,0.29c0.2,0.19,0.3,0.42,0.3,0.69c0,0.29-0.1,0.54-0.3,0.74
		c-0.2,0.2-0.45,0.3-0.74,0.3S126.96,42.59,126.76,42.39z M126.78,44.99h1.42V55.5h-1.42V44.99z"/>
	<path d="M141.88,44.99v9.23c0,1.78-0.44,3.11-1.31,3.96c-0.87,0.86-2.19,1.29-3.95,1.29c-0.97,0-1.9-0.14-2.77-0.43
		s-1.58-0.68-2.13-1.19l0.72-1.08c0.51,0.45,1.12,0.81,1.85,1.06s1.49,0.38,2.29,0.38c1.33,0,2.31-0.31,2.94-0.93
		s0.94-1.58,0.94-2.89v-1.34c-0.44,0.67-1.02,1.17-1.73,1.52c-0.71,0.35-1.5,0.52-2.37,0.52c-0.99,0-1.88-0.22-2.69-0.65
		s-1.44-1.04-1.9-1.82c-0.46-0.78-0.69-1.66-0.69-2.65c0-0.99,0.23-1.86,0.69-2.64s1.09-1.37,1.89-1.8c0.8-0.43,1.7-0.64,2.7-0.64
		c0.89,0,1.7,0.18,2.42,0.54c0.72,0.36,1.3,0.88,1.74,1.56v-2.02H141.88z M138.57,53.35c0.61-0.33,1.09-0.78,1.43-1.37
		c0.34-0.59,0.51-1.25,0.51-2c0-0.75-0.17-1.41-0.51-1.99c-0.34-0.58-0.81-1.03-1.42-1.36c-0.61-0.33-1.3-0.49-2.07-0.49
		c-0.76,0-1.44,0.16-2.05,0.48c-0.61,0.32-1.08,0.77-1.42,1.36c-0.34,0.59-0.51,1.25-0.51,2c0,0.75,0.17,1.41,0.51,2
		c0.34,0.59,0.81,1.04,1.42,1.37c0.61,0.33,1.29,0.49,2.05,0.49S137.96,53.68,138.57,53.35z"/>
	<path d="M154.36,46.06c0.78,0.77,1.17,1.88,1.17,3.35v6.09h-1.42v-5.95c0-1.09-0.27-1.92-0.82-2.5c-0.55-0.57-1.33-0.86-2.34-0.86
		c-1.13,0-2.03,0.34-2.69,1.01c-0.66,0.67-0.99,1.6-0.99,2.79v5.51h-1.42V40.68h1.42v6.15c0.39-0.61,0.92-1.08,1.6-1.42
		s1.46-0.5,2.34-0.5C152.53,44.91,153.58,45.29,154.36,46.06z"/>
	<path d="M164.92,54.86c-0.27,0.24-0.6,0.42-0.99,0.55c-0.39,0.13-0.8,0.19-1.23,0.19c-0.99,0-1.75-0.27-2.28-0.8
		c-0.53-0.53-0.8-1.29-0.8-2.26v-6.35h-1.88v-1.2h1.88v-2.3h1.42v2.3h3.2v1.2h-3.2v6.27c0,0.63,0.16,1.1,0.47,1.43
		c0.31,0.33,0.76,0.49,1.35,0.49c0.29,0,0.58-0.05,0.85-0.14c0.27-0.09,0.51-0.23,0.71-0.4L164.92,54.86z"/>
	<path d="M175.35,54.7c-1.11-0.61-1.98-1.46-2.62-2.55c-0.63-1.09-0.95-2.3-0.95-3.65c0-1.34,0.32-2.56,0.95-3.65
		c0.63-1.08,1.51-1.93,2.63-2.55s2.37-0.92,3.76-0.92c1.04,0,2,0.17,2.88,0.52c0.88,0.35,1.63,0.85,2.24,1.52l-0.94,0.94
		c-1.09-1.11-2.47-1.66-4.14-1.66c-1.11,0-2.11,0.25-3.02,0.76c-0.91,0.51-1.61,1.2-2.13,2.08s-0.77,1.86-0.77,2.96
		c0,1.09,0.26,2.08,0.77,2.96s1.22,1.57,2.13,2.08c0.91,0.51,1.91,0.76,3.02,0.76c1.68,0,3.06-0.56,4.14-1.68l0.94,0.94
		c-0.61,0.67-1.36,1.17-2.25,1.53c-0.89,0.35-1.85,0.53-2.89,0.53C177.71,55.62,176.47,55.31,175.35,54.7z"/>
	<path d="M188.19,54.91c-0.81-0.46-1.45-1.1-1.92-1.91c-0.47-0.81-0.7-1.73-0.7-2.76s0.23-1.94,0.7-2.76
		c0.47-0.81,1.1-1.44,1.92-1.9s1.72-0.68,2.74-0.68s1.92,0.23,2.74,0.68s1.45,1.08,1.91,1.9s0.69,1.73,0.69,2.76
		s-0.23,1.94-0.69,2.76s-1.1,1.45-1.91,1.91c-0.81,0.46-1.72,0.69-2.74,0.69S189,55.37,188.19,54.91z M192.93,53.83
		c0.59-0.34,1.06-0.82,1.39-1.45s0.5-1.34,0.5-2.14s-0.17-1.51-0.5-2.14s-0.8-1.11-1.39-1.45c-0.59-0.34-1.26-0.51-2.01-0.51
		c-0.75,0-1.42,0.17-2.01,0.51c-0.59,0.34-1.06,0.82-1.4,1.45c-0.34,0.63-0.51,1.34-0.51,2.14s0.17,1.51,0.51,2.14
		c0.34,0.63,0.81,1.11,1.4,1.45c0.59,0.34,1.26,0.51,2.01,0.51C191.67,54.34,192.34,54.17,192.93,53.83z"/>
	<path d="M202,45.45c0.66-0.36,1.48-0.54,2.45-0.54v1.38l-0.34-0.02c-1.11,0-1.97,0.34-2.6,1.02c-0.63,0.68-0.94,1.63-0.94,2.86
		v5.35h-1.42V44.99h1.36v2.06C200.85,46.34,201.34,45.81,202,45.45z"/>
	<path d="M208.46,54.91c-0.81-0.46-1.45-1.1-1.92-1.91c-0.47-0.81-0.7-1.73-0.7-2.76s0.23-1.94,0.7-2.76
		c0.47-0.81,1.1-1.44,1.92-1.9s1.72-0.68,2.74-0.68s1.92,0.23,2.74,0.68s1.45,1.08,1.91,1.9s0.69,1.73,0.69,2.76
		s-0.23,1.94-0.69,2.76s-1.1,1.45-1.91,1.91c-0.81,0.46-1.72,0.69-2.74,0.69S209.28,55.37,208.46,54.91z M213.21,53.83
		c0.59-0.34,1.06-0.82,1.39-1.45s0.5-1.34,0.5-2.14s-0.17-1.51-0.5-2.14s-0.8-1.11-1.39-1.45c-0.59-0.34-1.26-0.51-2.01-0.51
		c-0.75,0-1.42,0.17-2.01,0.51c-0.59,0.34-1.06,0.82-1.4,1.45c-0.34,0.63-0.51,1.34-0.51,2.14s0.17,1.51,0.51,2.14
		c0.34,0.63,0.81,1.11,1.4,1.45c0.59,0.34,1.26,0.51,2.01,0.51C211.95,54.34,212.62,54.17,213.21,53.83z"/>
	<path d="M227.93,46.06c0.78,0.77,1.17,1.88,1.17,3.35v6.09h-1.42v-5.95c0-1.09-0.27-1.92-0.82-2.5c-0.55-0.57-1.33-0.86-2.34-0.86
		c-1.13,0-2.03,0.34-2.69,1.01c-0.66,0.67-0.99,1.6-0.99,2.79v5.51h-1.42V44.99h1.36v1.94c0.39-0.64,0.92-1.13,1.61-1.49
		c0.69-0.35,1.48-0.53,2.39-0.53C226.1,44.91,227.15,45.29,227.93,46.06z"/>
	<path d="M239.79,45.94c0.73,0.69,1.1,1.7,1.1,3.05v6.51h-1.36v-1.64c-0.32,0.55-0.79,0.97-1.41,1.28s-1.36,0.46-2.21,0.46
		c-1.17,0-2.1-0.28-2.8-0.84c-0.69-0.56-1.04-1.3-1.04-2.22c0-0.89,0.32-1.61,0.97-2.16c0.65-0.55,1.67-0.82,3.09-0.82h3.34v-0.64
		c0-0.91-0.25-1.59-0.76-2.07c-0.51-0.47-1.25-0.71-2.22-0.71c-0.67,0-1.31,0.11-1.92,0.33c-0.61,0.22-1.14,0.52-1.58,0.91
		l-0.64-1.06c0.53-0.45,1.17-0.8,1.92-1.05c0.75-0.25,1.53-0.37,2.36-0.37C238,44.91,239.06,45.25,239.79,45.94z M238.19,53.93
		c0.57-0.37,1-0.9,1.28-1.59v-1.72h-3.3c-1.8,0-2.7,0.63-2.7,1.88c0,0.61,0.23,1.09,0.7,1.45c0.47,0.35,1.12,0.53,1.96,0.53
		C236.93,54.48,237.62,54.3,238.19,53.93z"/>
</g>
<polygon fill="#070308" points="74.53,25.64 63.9,17.55 67.61,12.63 78.24,20.72 "/>
<polygon fill="#070308" points="56.45,16.98 7.7,55.5 3.59,50.32 52.34,11.8 "/>
<circle fill="#070308" cx="32.1" cy="33.2" r="19.24"/>
<g>
	<g>
		<polygon fill="#070308" points="33.02,5.29 33.03,14.7 31.17,14.7 31.16,5.28 		"/>
		<circle fill="#070308" cx="32.1" cy="4.17" r="2.97"/>
	</g>
	<g>
		<polygon fill="#070308" points="31.17,61.31 31.16,51.9 33.02,51.9 33.03,61.32 		"/>
		<circle fill="#070308" cx="32.1" cy="62.43" r="2.97"/>
	</g>
</g>
<g>
	<g>
		<polygon fill="#070308" points="12.94,12.84 19.61,19.49 18.29,20.8 11.63,14.15 		"/>
		<circle fill="#070308" cx="11.5" cy="12.71" r="2.97"/>
	</g>
	<g>
		<polygon fill="#070308" points="51.25,53.76 44.59,47.11 45.9,45.8 52.57,52.45 		"/>
		<circle fill="#070308" cx="52.69" cy="53.9" r="2.97"/>
	</g>
</g>
<g>
	<g>
		<polygon fill="#070308" points="4.08,32.38 13.5,32.37 13.49,34.22 4.08,34.23 		"/>
		<circle fill="#070308" cx="2.97" cy="33.3" r="2.97"/>
	</g>
	<g>
		<polygon fill="#070308" points="60.11,34.22 50.7,34.23 50.7,32.38 60.11,32.37 		"/>
		<circle fill="#070308" cx="61.22" cy="33.3" r="2.97"/>
	</g>
</g>
<path fill="#070308" d="M62.77,0.33c-5.77-1.46-11.63,2.05-13.08,7.84c-1.45,5.79,2.05,11.66,7.82,13.12
	c5.77,1.46,11.63-2.05,13.08-7.84C72.04,7.66,68.54,1.79,62.77,0.33z M65.98,12.29c-0.81,3.24-4.09,5.2-7.31,4.38
	s-5.18-4.1-4.37-7.34c0.81-3.24,4.09-5.2,7.31-4.38C64.83,5.77,66.79,9.05,65.98,12.29z"/>
</svg>
