<?xml version="1.0" encoding="utf-8"?>
<!-- Generator: Adobe Illustrator 22.0.0, SVG Export Plug-In . SVG Version: 6.00 Build 0)  -->
<svg version="1.1" id="Capa_1" xmlns="http://www.w3.org/2000/svg" xmlns:xlink="http://www.w3.org/1999/xlink" x="0px" y="0px"
	 viewBox="0 0 282.81 65.38" enable-background="new 0 0 282.81 65.38" xml:space="preserve">
<g>
	<path fill="#d73621" d="M96.66,30.16c-1.68-0.9-2.99-2.15-3.95-3.75c-0.96-1.6-1.44-3.4-1.44-5.42c0-2.02,0.48-3.82,1.44-5.42
		s2.28-2.85,3.95-3.75c1.68-0.9,3.56-1.35,5.65-1.35c1.76,0,3.36,0.31,4.78,0.93c1.42,0.62,2.62,1.51,3.59,2.67l-3.02,2.79
		c-1.38-1.59-3.08-2.38-5.12-2.38c-1.26,0-2.38,0.28-3.37,0.83c-0.99,0.55-1.76,1.32-2.31,2.31c-0.55,0.99-0.83,2.11-0.83,3.37
		c0,1.26,0.28,2.38,0.83,3.37c0.55,0.99,1.32,1.76,2.31,2.31c0.99,0.55,2.11,0.83,3.37,0.83c2.03,0,3.74-0.8,5.12-2.41l3.02,2.79
		c-0.97,1.18-2.17,2.08-3.6,2.7c-1.43,0.62-3.03,0.93-4.8,0.93C100.21,31.51,98.33,31.06,96.66,30.16z"/>
	<path fill="#d73621" d="M117.56,30.14c-1.7-0.91-3.02-2.17-3.98-3.76c-0.96-1.6-1.44-3.4-1.44-5.39c0-2,0.48-3.79,1.44-5.39
		c0.96-1.6,2.29-2.85,3.98-3.76c1.7-0.91,3.6-1.37,5.71-1.37c2.11,0,4.01,0.46,5.7,1.37c1.69,0.91,3.01,2.17,3.98,3.76
		c0.97,1.6,1.45,3.4,1.45,5.39c0,2-0.48,3.79-1.45,5.39c-0.97,1.6-2.3,2.85-3.98,3.76c-1.69,0.91-3.59,1.37-5.7,1.37
		C121.16,31.51,119.25,31.05,117.56,30.14z M126.53,26.67c0.97-0.55,1.73-1.32,2.28-2.31c0.55-0.99,0.83-2.11,0.83-3.37
		c0-1.26-0.28-2.38-0.83-3.37c-0.55-0.99-1.31-1.76-2.28-2.31c-0.97-0.55-2.05-0.83-3.26-0.83c-1.2,0-2.29,0.28-3.26,0.83
		c-0.97,0.55-1.73,1.32-2.28,2.31c-0.55,0.99-0.83,2.11-0.83,3.37c0,1.26,0.28,2.38,0.83,3.37c0.55,0.99,1.31,1.76,2.28,2.31
		c0.97,0.55,2.05,0.83,3.26,0.83C124.47,27.5,125.56,27.22,126.53,26.67z"/>
	<path fill="#d73621" d="M156.46,31.16l-0.03-12.21l-5.99,10.06h-2.12l-5.96-9.8v11.95h-4.42V10.81h3.89l7.62,12.64l7.5-12.64h3.87
		l0.06,20.35H156.46z"/>
	<path fill="#d73621" d="M184.22,31.16l-0.03-12.21l-5.99,10.06h-2.12l-5.96-9.8v11.95h-4.42V10.81h3.89l7.62,12.64l7.5-12.64h3.87
		l0.06,20.35H184.22z"/>
	<path fill="#d73621" d="M193.47,10.81h4.71v20.35h-4.71V10.81z"/>
	<path fill="#E5E5E4" d="M229.09,14.65h-6.51v-3.84h17.73v3.84h-6.51v16.51h-4.71V14.65z"/>
	<path fill="#d73621" d="M208.7,14.65h-6.51v-3.84h17.73v3.84h-6.51v16.51h-4.71V14.65z"/>
	<path fill="#E5E5E4" d="M258.59,27.38v3.78h-15.75V10.81h15.38v3.78h-10.7v4.42h9.45v3.66h-9.45v4.71H258.59z"/>
	<path fill="#E5E5E4" d="M262.34,10.81h9.24c2.21,0,4.16,0.42,5.86,1.27c1.7,0.84,3.01,2.03,3.95,3.56
		c0.94,1.53,1.41,3.31,1.41,5.35c0,2.04-0.47,3.82-1.41,5.35c-0.94,1.53-2.26,2.72-3.95,3.56c-1.7,0.84-3.65,1.26-5.86,1.26h-9.24
		V10.81z M271.35,27.3c2.03,0,3.66-0.57,4.87-1.7c1.21-1.13,1.82-2.67,1.82-4.61c0-1.94-0.61-3.47-1.82-4.61
		c-1.21-1.13-2.83-1.7-4.87-1.7h-4.3V27.3H271.35z"/>
</g>
<g>
	<path fill="#E5E5E4" d="M98.46,54.86c-0.27,0.24-0.6,0.42-0.99,0.55c-0.39,0.13-0.8,0.19-1.23,0.19c-0.99,0-1.75-0.27-2.28-0.8
		c-0.53-0.53-0.8-1.29-0.8-2.26v-6.35h-1.88v-1.2h1.88v-2.3h1.42v2.3h3.2v1.2h-3.2v6.27c0,0.63,0.16,1.1,0.47,1.43
		c0.31,0.33,0.76,0.49,1.35,0.49c0.29,0,0.58-0.05,0.85-0.14c0.27-0.09,0.51-0.23,0.71-0.4L98.46,54.86z"/>
	<path fill="#E5E5E4" d="M102.21,54.91c-0.81-0.46-1.45-1.1-1.92-1.91c-0.47-0.81-0.7-1.73-0.7-2.76s0.23-1.94,0.7-2.76
		c0.47-0.81,1.1-1.44,1.92-1.9s1.72-0.68,2.74-0.68s1.92,0.23,2.74,0.68s1.45,1.08,1.91,1.9s0.69,1.73,0.69,2.76
		s-0.23,1.94-0.69,2.76s-1.1,1.45-1.91,1.91c-0.81,0.46-1.72,0.69-2.74,0.69S103.02,55.37,102.21,54.91z M106.96,53.83
		c0.59-0.34,1.06-0.82,1.39-1.45s0.5-1.34,0.5-2.14s-0.17-1.51-0.5-2.14s-0.8-1.11-1.39-1.45c-0.59-0.34-1.26-0.51-2.01-0.51
		c-0.75,0-1.42,0.17-2.01,0.51c-0.59,0.34-1.06,0.82-1.4,1.45c-0.34,0.63-0.51,1.34-0.51,2.14s0.17,1.51,0.51,2.14
		c0.34,0.63,0.81,1.11,1.4,1.45c0.59,0.34,1.26,0.51,2.01,0.51C105.69,54.34,106.36,54.17,106.96,53.83z"/>
	<path fill="#E5E5E4" d="M120.5,42.27c-0.31,0.33-0.47,0.83-0.47,1.48v1.24h3.24v1.2h-3.2v9.31h-1.42v-9.31h-1.88v-1.2h1.88v-1.3
		c0-0.96,0.28-1.72,0.83-2.28c0.55-0.56,1.33-0.84,2.35-0.84c0.4,0,0.79,0.06,1.16,0.17c0.37,0.11,0.69,0.28,0.94,0.49l-0.48,1.06
		c-0.41-0.35-0.93-0.52-1.56-0.52C121.27,41.78,120.81,41.94,120.5,42.27z M126.76,42.39c-0.2-0.2-0.3-0.44-0.3-0.72
		c0-0.27,0.1-0.5,0.3-0.7c0.2-0.2,0.45-0.3,0.74-0.3s0.54,0.1,0.74,0.29c0.2,0.19,0.3,0.42,0.3,0.69c0,0.29-0.1,0.54-0.3,0.74
		c-0.2,0.2-0.45,0.3-0.74,0.3S126.96,42.59,126.76,42.39z M126.78,44.99h1.42V55.5h-1.42V44.99z"/>
	<path fill="#E5E5E4" d="M141.88,44.99v9.23c0,1.78-0.44,3.11-1.31,3.96c-0.87,0.86-2.19,1.29-3.95,1.29c-0.97,0-1.9-0.14-2.77-0.43
		s-1.58-0.68-2.13-1.19l0.72-1.08c0.51,0.45,1.12,0.81,1.85,1.06s1.49,0.38,2.29,0.38c1.33,0,2.31-0.31,2.94-0.93
		s0.94-1.58,0.94-2.89v-1.34c-0.44,0.67-1.02,1.17-1.73,1.52c-0.71,0.35-1.5,0.52-2.37,0.52c-0.99,0-1.88-0.22-2.69-0.65
		s-1.44-1.04-1.9-1.82c-0.46-0.78-0.69-1.66-0.69-2.65c0-0.99,0.23-1.86,0.69-2.64s1.09-1.37,1.89-1.8c0.8-0.43,1.7-0.64,2.7-0.64
		c0.89,0,1.7,0.18,2.42,0.54c0.72,0.36,1.3,0.88,1.74,1.56v-2.02H141.88z M138.57,53.35c0.61-0.33,1.09-0.78,1.43-1.37
		c0.34-0.59,0.51-1.25,0.51-2c0-0.75-0.17-1.41-0.51-1.99c-0.34-0.58-0.81-1.03-1.42-1.36c-0.61-0.33-1.3-0.49-2.07-0.49
		c-0.76,0-1.44,0.16-2.05,0.48c-0.61,0.32-1.08,0.77-1.42,1.36c-0.34,0.59-0.51,1.25-0.51,2c0,0.75,0.17,1.41,0.51,2
		c0.34,0.59,0.81,1.04,1.42,1.37c0.61,0.33,1.29,0.49,2.05,0.49S137.96,53.68,138.57,53.35z"/>
	<path fill="#E5E5E4" d="M154.36,46.06c0.78,0.77,1.17,1.88,1.17,3.35v6.09h-1.42v-5.95c0-1.09-0.27-1.92-0.82-2.5
		c-0.55-0.57-1.33-0.86-2.34-0.86c-1.13,0-2.03,0.34-2.69,1.01c-0.66,0.67-0.99,1.6-0.99,2.79v5.51h-1.42V40.68h1.42v6.15
		c0.39-0.61,0.92-1.08,1.6-1.42s1.46-0.5,2.34-0.5C152.53,44.91,153.58,45.29,154.36,46.06z"/>
	<path fill="#E5E5E4" d="M164.92,54.86c-0.27,0.24-0.6,0.42-0.99,0.55c-0.39,0.13-0.8,0.19-1.23,0.19c-0.99,0-1.75-0.27-2.28-0.8
		c-0.53-0.53-0.8-1.29-0.8-2.26v-6.35h-1.88v-1.2h1.88v-2.3h1.42v2.3h3.2v1.2h-3.2v6.27c0,0.63,0.16,1.1,0.47,1.43
		c0.31,0.33,0.76,0.49,1.35,0.49c0.29,0,0.58-0.05,0.85-0.14c0.27-0.09,0.51-0.23,0.71-0.4L164.92,54.86z"/>
	<path fill="#E5E5E4" d="M175.35,54.7c-1.11-0.61-1.98-1.46-2.62-2.55c-0.63-1.09-0.95-2.3-0.95-3.65c0-1.34,0.32-2.56,0.95-3.65
		c0.63-1.08,1.51-1.93,2.63-2.55s2.37-0.92,3.76-0.92c1.04,0,2,0.17,2.88,0.52c0.88,0.35,1.63,0.85,2.24,1.52l-0.94,0.94
		c-1.09-1.11-2.47-1.66-4.14-1.66c-1.11,0-2.11,0.25-3.02,0.76c-0.91,0.51-1.61,1.2-2.13,2.08s-0.77,1.86-0.77,2.96
		c0,1.09,0.26,2.08,0.77,2.96s1.22,1.57,2.13,2.08c0.91,0.51,1.91,0.76,3.02,0.76c1.68,0,3.06-0.56,4.14-1.68l0.94,0.94
		c-0.61,0.67-1.36,1.17-2.25,1.53c-0.89,0.35-1.85,0.53-2.89,0.53C177.71,55.62,176.47,55.31,175.35,54.7z"/>
	<path fill="#E5E5E4" d="M188.19,54.91c-0.81-0.46-1.45-1.1-1.92-1.91c-0.47-0.81-0.7-1.73-0.7-2.76s0.23-1.94,0.7-2.76
		c0.47-0.81,1.1-1.44,1.92-1.9s1.72-0.68,2.74-0.68s1.92,0.23,2.74,0.68s1.45,1.08,1.91,1.9s0.69,1.73,0.69,2.76
		s-0.23,1.94-0.69,2.76s-1.1,1.45-1.91,1.91c-0.81,0.46-1.72,0.69-2.74,0.69S189,55.37,188.19,54.91z M192.93,53.83
		c0.59-0.34,1.06-0.82,1.39-1.45s0.5-1.34,0.5-2.14s-0.17-1.51-0.5-2.14s-0.8-1.11-1.39-1.45c-0.59-0.34-1.26-0.51-2.01-0.51
		c-0.75,0-1.42,0.17-2.01,0.51c-0.59,0.34-1.06,0.82-1.4,1.45c-0.34,0.63-0.51,1.34-0.51,2.14s0.17,1.51,0.51,2.14
		c0.34,0.63,0.81,1.11,1.4,1.45c0.59,0.34,1.26,0.51,2.01,0.51C191.67,54.34,192.34,54.17,192.93,53.83z"/>
	<path fill="#E5E5E4" d="M202,45.45c0.66-0.36,1.48-0.54,2.45-0.54v1.38l-0.34-0.02c-1.11,0-1.97,0.34-2.6,1.02
		c-0.63,0.68-0.94,1.63-0.94,2.86v5.35h-1.42V44.99h1.36v2.06C200.85,46.34,201.34,45.81,202,45.45z"/>
	<path fill="#E5E5E4" d="M208.46,54.91c-0.81-0.46-1.45-1.1-1.92-1.91c-0.47-0.81-0.7-1.73-0.7-2.76s0.23-1.94,0.7-2.76
		c0.47-0.81,1.1-1.44,1.92-1.9s1.72-0.68,2.74-0.68s1.92,0.23,2.74,0.68s1.45,1.08,1.91,1.9s0.69,1.73,0.69,2.76
		s-0.23,1.94-0.69,2.76s-1.1,1.45-1.91,1.91c-0.81,0.46-1.72,0.69-2.74,0.69S209.28,55.37,208.46,54.91z M213.21,53.83
		c0.59-0.34,1.06-0.82,1.39-1.45s0.5-1.34,0.5-2.14s-0.17-1.51-0.5-2.14s-0.8-1.11-1.39-1.45c-0.59-0.34-1.26-0.51-2.01-0.51
		c-0.75,0-1.42,0.17-2.01,0.51c-0.59,0.34-1.06,0.82-1.4,1.45c-0.34,0.63-0.51,1.34-0.51,2.14s0.17,1.51,0.51,2.14
		c0.34,0.63,0.81,1.11,1.4,1.45c0.59,0.34,1.26,0.51,2.01,0.51C211.95,54.34,212.62,54.17,213.21,53.83z"/>
	<path fill="#E5E5E4" d="M227.93,46.06c0.78,0.77,1.17,1.88,1.17,3.35v6.09h-1.42v-5.95c0-1.09-0.27-1.92-0.82-2.5
		c-0.55-0.57-1.33-0.86-2.34-0.86c-1.13,0-2.03,0.34-2.69,1.01c-0.66,0.67-0.99,1.6-0.99,2.79v5.51h-1.42V44.99h1.36v1.94
		c0.39-0.64,0.92-1.13,1.61-1.49c0.69-0.35,1.48-0.53,2.39-0.53C226.1,44.91,227.15,45.29,227.93,46.06z"/>
	<path fill="#E5E5E4" d="M239.79,45.94c0.73,0.69,1.1,1.7,1.1,3.05v6.51h-1.36v-1.64c-0.32,0.55-0.79,0.97-1.41,1.28
		s-1.36,0.46-2.21,0.46c-1.17,0-2.1-0.28-2.8-0.84c-0.69-0.56-1.04-1.3-1.04-2.22c0-0.89,0.32-1.61,0.97-2.16
		c0.65-0.55,1.67-0.82,3.09-0.82h3.34v-0.64c0-0.91-0.25-1.59-0.76-2.07c-0.51-0.47-1.25-0.71-2.22-0.71
		c-0.67,0-1.31,0.11-1.92,0.33c-0.61,0.22-1.14,0.52-1.58,0.91l-0.64-1.06c0.53-0.45,1.17-0.8,1.92-1.05
		c0.75-0.25,1.53-0.37,2.36-0.37C238,44.91,239.06,45.25,239.79,45.94z M238.19,53.93c0.57-0.37,1-0.9,1.28-1.59v-1.72h-3.3
		c-1.8,0-2.7,0.63-2.7,1.88c0,0.61,0.23,1.09,0.7,1.45c0.47,0.35,1.12,0.53,1.96,0.53C236.93,54.48,237.62,54.3,238.19,53.93z"/>
</g>
<path fill="#E5E5E4" d="M53.49,19.32c1.15,0.91,2.5,1.59,4.01,1.98c3.24,0.82,6.5,0.07,9-1.76l8.03,6.11l3.71-4.92l-8.02-6.11
	c0.14-0.38,0.27-0.76,0.37-1.16c1.45-5.79-2.05-11.66-7.82-13.12c-5.77-1.46-11.63,2.05-13.08,7.84c-0.48,1.93-0.41,3.86,0.11,5.64
	l-5.61,4.43c-3.08-2.49-6.94-4.03-11.15-4.23l-0.01-7.03c1.18-0.39,2.05-1.49,2.05-2.81c0-1.64-1.33-2.97-2.97-2.97
	s-2.97,1.33-2.97,2.97c0,1.31,0.86,2.41,2.04,2.81l0.01,7.03c-4.63,0.22-8.83,2.07-12.04,5.01l-4.99-4.98
	c0.56-1.11,0.39-2.5-0.54-3.43c-1.16-1.16-3.04-1.16-4.2,0c-1.16,1.16-1.16,3.04,0,4.2c0.93,0.93,2.31,1.1,3.43,0.54l5,4.99
	c-2.9,3.22-4.72,7.41-4.92,12.03l-7.12,0.01c-0.39-1.18-1.49-2.05-2.81-2.05C1.33,30.33,0,31.66,0,33.3c0,1.64,1.33,2.97,2.97,2.97
	c1.31,0,2.41-0.86,2.81-2.04l7.13-0.01c0.14,2.59,0.78,5.05,1.85,7.27L3.59,50.32L7.7,55.5l10.89-8.6c3.27,3.22,7.68,5.26,12.57,5.5
	l0.01,7.22c-1.18,0.39-2.05,1.49-2.05,2.81c0,1.64,1.33,2.97,2.97,2.97s2.97-1.33,2.97-2.97c0-1.31-0.86-2.41-2.04-2.81l-0.01-7.22
	c4.59-0.22,8.74-2.03,11.94-4.91l5.09,5.08c-0.56,1.11-0.39,2.5,0.54,3.43c1.16,1.16,3.04,1.16,4.2,0c1.16-1.16,1.16-3.04,0-4.2
	c-0.93-0.93-2.31-1.1-3.43-0.54l-5.09-5.08c2.91-3.18,4.76-7.34,5.01-11.94l7.13-0.01c0.39,1.18,1.49,2.05,2.81,2.05
	c1.64,0,2.97-1.33,2.97-2.97c0-1.64-1.33-2.97-2.97-2.97c-1.31,0-2.41,0.86-2.81,2.04l-7.12,0.01c-0.14-3.34-1.13-6.45-2.76-9.14
	L53.49,19.32z M54.29,9.34c0.81-3.24,4.09-5.2,7.31-4.38c3.23,0.82,5.18,4.1,4.37,7.34c-0.81,3.24-4.09,5.2-7.31,4.38
	S53.48,12.57,54.29,9.34z"/>
</svg>
